<svg xmlns="http://www.w3.org/2000/svg" xmlns:xlink="http://www.w3.org/1999/xlink" viewBox="0 0 597.8562 125.9051">
  <defs>
    <linearGradient id="linear-gradient" x1="17.4691" y1="58.0326" x2="72.7275" y2="58.0326" gradientUnits="userSpaceOnUse">
      <stop offset="0" stop-color="#ffd63e"/>
      <stop offset="0.048" stop-color="#f6d53f"/>
      <stop offset="0.1261" stop-color="#ded040"/>
      <stop offset="0.2246" stop-color="#b6ca42"/>
      <stop offset="0.3395" stop-color="#80c146"/>
      <stop offset="0.4665" stop-color="#3bb54a"/>
      <stop offset="0.6271" stop-color="#39b24d"/>
      <stop offset="0.7282" stop-color="#34aa55"/>
      <stop offset="0.8128" stop-color="#2b9b63"/>
      <stop offset="0.8884" stop-color="#1e8677"/>
      <stop offset="0.9573" stop-color="#0d6c91"/>
      <stop offset="0.9986" stop-color="#0158a4"/>
    </linearGradient>
    <linearGradient id="linear-gradient-2" x1="17.4691" y1="58.3373" x2="72.7275" y2="58.3373" xlink:href="#linear-gradient"/>
    <linearGradient id="linear-gradient-3" x1="17.4691" y1="58.3368" x2="72.7275" y2="58.3368" xlink:href="#linear-gradient"/>
    <linearGradient id="linear-gradient-4" x1="17.4691" y1="43.1429" x2="72.7275" y2="43.1429" xlink:href="#linear-gradient"/>
    <linearGradient id="linear-gradient-5" x1="17.4691" y1="73.8904" x2="72.7275" y2="73.8904" xlink:href="#linear-gradient"/>
  </defs>
  <g id="full-rgb">
    <g>
      <path id="fullLogo" d="M146.0555,108.8055h5.9433q.3194,0,.3193.4121c0,.6758-.1572,1.0127-.4687,1.0127H146.993l-.45,4.2754h4.706q.3194,0,.3193.4121c0,.6748-.1572,1.0127-.4687,1.0127h-4.7061l-.582,5.625c-.0371.2754-.3.4121-.7871.4121h-.15c-.4746,0-.7119-.1367-.7119-.4121l1.2744-12.1875A.5573.5573,0,0,1,146.0555,108.8055Z" style="fill: #0158a4"/>
      <path id="fullLogo-2" data-name="fullLogo" d="M161.5613,120.6932l.5059-.0938c.0761,0,.1133.0684.1133.2061a3.3475,3.3475,0,0,1-.0665.5722.66.66,0,0,1-.4306.5157,1.8519,1.8519,0,0,1-.7031.1494q-1.6875,0-1.6875-1.8369v-.1875a3.2455,3.2455,0,0,1-2.9248,2.0244,3.0683,3.0683,0,0,1-2.0059-.7871,2.9957,2.9957,0,0,1-.8164-1.2657,5.7585,5.7585,0,0,1-.3086-1.997,6.9757,6.9757,0,0,1,1.2559-4.3125,3.9728,3.9728,0,0,1,3.3378-1.669,3.3853,3.3853,0,0,1,2.3809,1.0127,3.6109,3.6109,0,0,1,.1875-.5058.71.71,0,0,1,.6563-.4317h.1123q.4688,0,.4687.3936-.75,6.9375-.75,7.331a1.9916,1.9916,0,0,0,.0557.5625.3624.3624,0,0,0,.17.2256A1.07,1.07,0,0,0,161.5613,120.6932Zm-3.581-7.3125q-3.1128,0-3.1123,4.5,0,2.7934,1.8554,2.7939a2.2345,2.2345,0,0,0,1.52-.7412,5.7171,5.7171,0,0,0,1.2929-2.4277l.2442-2.4561q.0381-.3384.15-.9375A3.0791,3.0791,0,0,0,157.98,113.3807Z" style="fill: #0158a4"/>
      <path id="fullLogo-3" data-name="fullLogo" d="M166.9051,125.868a2.7361,2.7361,0,0,1-1.6123-.375.4653.4653,0,0,1-.2061-.3936c0-.4131.0742-.6191.2246-.6191l.1875.1123a2.4612,2.4612,0,0,0,1.2754.3564q1.125,0,1.125-.75a.4641.4641,0,0,0-.1777-.3838,1.0786,1.0786,0,0,0-.3848-.1972q-.5625-.1128-.5625-.3936c0-.0127.0254-.0937.0742-.2441l.375-.9375a4.125,4.125,0,0,1-2.8681-.9932,3.7465,3.7465,0,0,1-.9561-2.7939,9.5518,9.5518,0,0,1,.4688-3.1787,4.6729,4.6729,0,0,1,1.6123-2.1934,4.5958,4.5958,0,0,1,2.8681-.8721,4.769,4.769,0,0,1,1.9043.3194q.7208.3179.7207.6562a1.1469,1.1469,0,0,1-.2519.5713c-.17.2441-.3282.3662-.4785.3662a1.4091,1.4091,0,0,1-.2247-.1318,3.6255,3.6255,0,0,0-1.9687-.4307,2.619,2.619,0,0,0-2.166,1.1152,5.8115,5.8115,0,0,0-.8535,3.5157,2.9192,2.9192,0,0,0,.6093,2.0527,2.5579,2.5579,0,0,0,1.9414.6475,5.1726,5.1726,0,0,0,2.1563-.45,2.34,2.34,0,0,1,.3555-.1309c.0752,0,.1132.1.1132.3a4.0791,4.0791,0,0,1-.0937.7686q-.1318.6563-2.0625.8437l-.3379.8252h.0742a2.8916,2.8916,0,0,1,.5625.0557,1.2681,1.2681,0,0,1,.5918.3476.9956.9956,0,0,1,.3086.7588Q169.2488,125.8675,166.9051,125.868Z" style="fill: #0158a4"/>
      <path id="fullLogo-4" data-name="fullLogo" d="M172.2674,118.0115a7.1656,7.1656,0,0,1,1.1435-4.1435,4.0581,4.0581,0,0,1,1.5567-1.3594,4.8874,4.8874,0,0,1,2.25-.4971,3.634,3.634,0,0,1,2.8027,1.041,4.2941,4.2941,0,0,1,.9658,3.0284,6.7409,6.7409,0,0,1-1.2842,4.415,4.3673,4.3673,0,0,1-3.5527,1.5469,3.8219,3.8219,0,0,1-2.8975-1.0313A4.1819,4.1819,0,0,1,172.2674,118.0115Zm3.9756,2.6817a2.6311,2.6311,0,0,0,2.3056-1.1719,5.9949,5.9949,0,0,0,.8057-3.4033,3.1675,3.1675,0,0,0-.5713-2.0811,2.1952,2.1952,0,0,0-1.7725-.6748,2.6183,2.6183,0,0,0-2.3242,1.2188,6.074,6.074,0,0,0-.8066,3.375Q173.88,120.6937,176.243,120.6932Z" style="fill: #0158a4"/>
      <path id="fullLogo-5" data-name="fullLogo" d="M190.7351,114.449l-.5429,5.4756c0,.375.0742.6.2246.6748a1.0742,1.0742,0,0,0,.45.0938l.5068-.0938c.0742,0,.1113.0684.1113.2061a3.5165,3.5165,0,0,1-.0644.5722.6626.6626,0,0,1-.4317.5157,1.8589,1.8589,0,0,1-.7031.1494q-1.6875,0-1.6875-1.8369,0-.3384.2617-2.7852.2637-2.4463.2637-2.5967a1.2683,1.2683,0,0,0-1.4258-1.4433,2.5592,2.5592,0,0,0-1.6035.6933,5.0308,5.0308,0,0,0-1.3769,2.3252l-.545,5.1563q-.0556.4131-.7871.4121h-.0742q-.7134,0-.7129-.3936.8247-7.33.8242-8.2119l-.0175-.6377q0-.4322,1.0488-.4316.4893,0,.4883,1.4062a1.14,1.14,0,0,1-.02.2061,4.0584,4.0584,0,0,1,3.3379-1.8936A2.1707,2.1707,0,0,1,190.7351,114.449Z" style="fill: #0158a4"/>
      <path id="fullLogo-6" data-name="fullLogo" d="M200.991,114.449l-.543,5.4756c0,.375.0742.6.2246.6748a1.0742,1.0742,0,0,0,.45.0938l.5069-.0938c.0742,0,.1113.0684.1113.2061a3.5188,3.5188,0,0,1-.0645.5722.6627.6627,0,0,1-.4316.5157,1.8589,1.8589,0,0,1-.7031.1494q-1.6875,0-1.6875-1.8369,0-.3384.2617-2.7852.2637-2.4463.2637-2.5967a1.2683,1.2683,0,0,0-1.4258-1.4433,2.559,2.559,0,0,0-1.6035.6933,5.0308,5.0308,0,0,0-1.377,2.3252l-.5449,5.1563q-.0557.4131-.7871.4121h-.0742q-.7134,0-.7129-.3936.8247-7.33.8242-8.2119l-.0176-.6377q0-.4322,1.0488-.4316.4893,0,.4883,1.4062a1.1393,1.1393,0,0,1-.0195.2061,4.0584,4.0584,0,0,1,3.3379-1.8936A2.1707,2.1707,0,0,1,200.991,114.449Z" style="fill: #0158a4"/>
      <path id="fullLogo-7" data-name="fullLogo" d="M210.1043,120.0184a1.5862,1.5862,0,0,1,.4492-.2442c.0879,0,.1309.0967.1309.291a4.3393,4.3393,0,0,1-.0938.7774q-.1113.5815-1.1621.8906a6.7937,6.7937,0,0,1-1.9121.31q-4.2378,0-4.2383-3.8809a7.2458,7.2458,0,0,1,1.2754-4.4346,4.5225,4.5225,0,0,1,3.8809-1.7158,3.1842,3.1842,0,0,1,2.373.7969,2.43,2.43,0,0,1,.7773,1.7158,3.04,3.04,0,0,1-.4218,1.6123,2.8106,2.8106,0,0,1-1.1719,1.0694,7.6053,7.6053,0,0,1-3.4688.73,8.7232,8.7232,0,0,1-1.6123-.1308v.1875a2.6508,2.6508,0,0,0,.7032,2.0908,3.02,3.02,0,0,0,2.0341.6094A4.6964,4.6964,0,0,0,210.1043,120.0184Zm-1.8379-6.6563q-2.8125,0-3.2627,3.2246h1.331a6.41,6.41,0,0,0,2.5313-.4121,2.17,2.17,0,0,0,.75-.582,1.3928,1.3928,0,0,0,.3379-.9375,1.1449,1.1449,0,0,0-.459-.918A1.8865,1.8865,0,0,0,208.2664,113.3621Z" style="fill: #0158a4"/>
      <path id="fullLogo-8" data-name="fullLogo" d="M214.3221,113.3621l-.0186-.6377q0-.4322,1.05-.4316.4878,0,.4873,1.4062a1.1668,1.1668,0,0,1-.0185.1875,3.8777,3.8777,0,0,1,1.1162-1.3779,2.2751,2.2751,0,0,1,1.3779-.4971c.624,0,.9375.2373.9375.7129a1.4964,1.4964,0,0,1-.1875.6934c-.126.2373-.2441.3564-.3565.3564a1.0206,1.0206,0,0,1-.2441-.1035,1.08,1.08,0,0,0-.4873-.1025,1.8284,1.8284,0,0,0-1.2842.6748,5.4707,5.4707,0,0,0-1.0967,2.2871l-.5253,5.0254c-.0372.2754-.3.4121-.7872.4121H214.21q-.7119,0-.7128-.3936Q214.323,114.2615,214.3221,113.3621Z" style="fill: #0158a4"/>
      <path id="fullLogo-9" data-name="fullLogo" d="M230.8972,125.8309h-.0751c-.4756,0-.712-.1377-.712-.4131l.543-5.3252a3.337,3.337,0,0,1-2.9805,1.95,3.7358,3.7358,0,0,1-2.25-.7871,3.0087,3.0087,0,0,1-.91-1.2657,5.1859,5.1859,0,0,1-.3467-1.997,6.6086,6.6086,0,0,1,1.3594-4.3125,4.4227,4.4227,0,0,1,3.6094-1.669,3.4693,3.4693,0,0,1,2.4931,1.0127c.1758-.625.4375-.9375.7881-.9375h.1494q.4688,0,.4688.4121l-1.35,12.919Q231.6286,125.8309,230.8972,125.8309Zm-1.6132-12.45q-3.4864,0-3.4864,4.5,0,2.7934,2.2305,2.7939a2.3383,2.3383,0,0,0,1.5566-.7226,5.5359,5.5359,0,0,0,1.3311-2.3907l.2627-2.5117q.0556-.4322.15-.9375A3.0592,3.0592,0,0,0,229.284,113.3807Z" style="fill: #0158a4"/>
      <path id="fullLogo-10" data-name="fullLogo" d="M242.8972,120.6932l.5059-.0938c.0752,0,.1123.0684.1123.2061a3.54,3.54,0,0,1-.0654.5722.661.661,0,0,1-.4317.5157,1.8511,1.8511,0,0,1-.7031.1494q-1.6875,0-1.6875-1.8369v-.1875a3.938,3.938,0,0,1-3.3369,2.0244,2.1715,2.1715,0,0,1-2.4756-2.4375l.7129-7.1065q.0557-.4116.7871-.4121h.0752q.7134,0,.7129.4121-.6753,6.4688-.6748,6.7315a1.2679,1.2679,0,0,0,1.4248,1.4443,2.5083,2.5083,0,0,0,1.6221-.7314,5.3742,5.3742,0,0,0,1.3779-2.4561l.5244-4.9883q.0571-.4116.7881-.4121h.0752q.7119,0,.7119.4121-.731,6.8628-.7314,7.2852a2.12,2.12,0,0,0,.0566.59.3614.3614,0,0,0,.169.2256A1.0737,1.0737,0,0,0,242.8972,120.6932Z" style="fill: #0158a4"/>
      <path id="fullLogo-11" data-name="fullLogo" d="M247.4344,120.6932l.5058-.0938c.0752,0,.1123.0684.1123.2061a3.54,3.54,0,0,1-.0654.5722.661.661,0,0,1-.4316.5157,1.852,1.852,0,0,1-.7032.1494q-1.6685,0-1.6679-1.7813,0-.6753.375-4.2187t.3935-3.544q.0557-.4116.7871-.4121h.0752c.4746,0,.7129.1377.7129.4121q-.75,6.8628-.75,7.3223a1.2811,1.2811,0,0,0,.1123.6377.4206.4206,0,0,0,.2246.206A1.3944,1.3944,0,0,0,247.4344,120.6932Zm-.3194-12.8623h.2256q.7119,0,.7119.4121l-.1123,1.1064c0,.2744-.2383.4121-.7129.4121h-.2246c-.5254,0-.7871-.1377-.7871-.4121l.1123-1.1064Q246.3836,107.8314,247.115,107.8309Z" style="fill: #0158a4"/>
      <path id="fullLogo-12" data-name="fullLogo" d="M261.9275,114.449l-.5439,5.4756q0,.5625.2256.6748a1.0742,1.0742,0,0,0,.45.0938l.5058-.0938c.0752,0,.1123.0684.1123.2061a3.54,3.54,0,0,1-.0654.5722.661.661,0,0,1-.4316.5157,1.852,1.852,0,0,1-.7032.1494q-1.6875,0-1.6875-1.8369,0-.3384.2627-2.7852t.2627-2.5967a1.2676,1.2676,0,0,0-1.4248-1.4433,2.5549,2.5549,0,0,0-1.6035.6933,5.04,5.04,0,0,0-1.3779,2.3252l-.544,5.1563c-.0371.2754-.3.4121-.7871.4121h-.0752c-.4746,0-.7129-.1309-.7129-.3936q.8262-7.33.8252-8.2119l-.0185-.6377q0-.4322,1.05-.4316.4878,0,.4873,1.4062a1.23,1.23,0,0,1-.0186.2061,4.0571,4.0571,0,0,1,3.3379-1.8936A2.1711,2.1711,0,0,1,261.9275,114.449Z" style="fill: #0158a4"/>
      <path id="fullLogo-13" data-name="fullLogo" d="M264.1961,118.0115a7.1581,7.1581,0,0,1,1.1435-4.1435,4.0581,4.0581,0,0,1,1.5567-1.3594,4.8874,4.8874,0,0,1,2.25-.4971,3.6339,3.6339,0,0,1,2.8027,1.041,4.2983,4.2983,0,0,1,.9658,3.0284,6.7353,6.7353,0,0,1-1.2842,4.415,4.368,4.368,0,0,1-3.5537,1.5469,3.8206,3.8206,0,0,1-2.8964-1.0313A4.1814,4.1814,0,0,1,264.1961,118.0115Zm3.9746,2.6817a2.6316,2.6316,0,0,0,2.3066-1.1719,5.9945,5.9945,0,0,0,.8067-3.4033,3.1724,3.1724,0,0,0-.5723-2.0811,2.1945,2.1945,0,0,0-1.7715-.6748,2.6189,2.6189,0,0,0-2.3252,1.2188,6.0656,6.0656,0,0,0-.8066,3.375Q265.8084,120.6937,268.1707,120.6932Z" style="fill: #0158a4"/>
      <path id="fullLogo-14" data-name="fullLogo" d="M282.9832,120.6932l.5058-.0938c.0762,0,.1133.0684.1133.2061a3.4508,3.4508,0,0,1-.0664.5722.66.66,0,0,1-.4306.5157,1.852,1.852,0,0,1-.7032.1494q-1.6875,0-1.6875-1.8369v-.1875a3.9392,3.9392,0,0,1-3.3369,2.0244,2.1715,2.1715,0,0,1-2.4756-2.4375l.7119-7.1065q.0572-.4116.7881-.4121h.0752c.4746,0,.7129.1377.7129.4121q-.6768,6.4688-.6758,6.7315a1.2682,1.2682,0,0,0,1.4258,1.4443,2.5058,2.5058,0,0,0,1.6211-.7314,5.3736,5.3736,0,0,0,1.3789-2.4561l.5244-4.9883c.0381-.2744.3-.4121.7881-.4121h.0742c.4746,0,.7129.1377.7129.4121q-.7325,6.8628-.7314,7.2852a2.1306,2.1306,0,0,0,.0556.59.3625.3625,0,0,0,.17.2256A1.07,1.07,0,0,0,282.9832,120.6932Z" style="fill: #0158a4"/>
      <path id="fullLogo-15" data-name="fullLogo" d="M284.5955,120.9744q0-1.0122.3-1.0127a1.25,1.25,0,0,1,.3379.169,3.3632,3.3632,0,0,0,1.8379.5625,2.4012,2.4012,0,0,0,1.5176-.4405,1.3879,1.3879,0,0,0,.5625-1.1445,1.4558,1.4558,0,0,0-.4219-1.1055,2.7384,2.7384,0,0,0-1.0215-.6093q-.6006-.2065-1.19-.4414a2.4445,2.4445,0,0,1-1.0127-.7588,2.1183,2.1183,0,0,1-.4219-1.3692,2.4892,2.4892,0,0,1,.9658-2.0342,3.7752,3.7752,0,0,1,2.4463-.7783,5.4735,5.4735,0,0,1,1.5664.2256q.7588.2241.76.6748a1.16,1.16,0,0,1-.2344.544c-.1572.2373-.3037.3554-.4414.3554a1.8052,1.8052,0,0,1-.2441-.1123,3.2046,3.2046,0,0,0-1.4532-.3369,2.09,2.09,0,0,0-1.2461.3369,1.0667,1.0667,0,0,0-.0566,1.7256,3.5514,3.5514,0,0,0,1.0039.5244q.5889.2065,1.19.4785a2.5,2.5,0,0,1,1.0136.8526,2.444,2.444,0,0,1,.4121,1.4443,3.1609,3.1609,0,0,1-.9658,2.3994,3.5813,3.5813,0,0,1-2.5781.919,5.9385,5.9385,0,0,1-1.6875-.2813C284.907,121.574,284.5955,121.3113,284.5955,120.9744Z" style="fill: #0158a4"/>
      <path id="fullLogo-16" data-name="fullLogo" d="M296.4637,120.9744q0-1.0122.3007-1.0127a1.2512,1.2512,0,0,1,.3369.169,3.3659,3.3659,0,0,0,1.8379.5625,2.4023,2.4023,0,0,0,1.5186-.4405,1.3879,1.3879,0,0,0,.5625-1.1445,1.4555,1.4555,0,0,0-.4219-1.1055,2.7455,2.7455,0,0,0-1.0215-.6093q-.6006-.2065-1.1914-.4414a2.4429,2.4429,0,0,1-1.0117-.7588,2.1189,2.1189,0,0,1-.4219-1.3692,2.4882,2.4882,0,0,1,.9649-2.0342,3.7778,3.7778,0,0,1,2.4472-.7783,5.4673,5.4673,0,0,1,1.5655.2256q.76.2241.76.6748a1.15,1.15,0,0,1-.2343.544c-.1563.2373-.3037.3554-.44.3554a1.8117,1.8117,0,0,1-.2441-.1123,3.21,3.21,0,0,0-1.4531-.3369,2.0914,2.0914,0,0,0-1.2471.3369,1.0659,1.0659,0,0,0-.0557,1.7256,3.5443,3.5443,0,0,0,1.003.5244q.59.2065,1.19.4785a2.4971,2.4971,0,0,1,1.0127.8526,2.4376,2.4376,0,0,1,.4121,1.4443,3.1577,3.1577,0,0,1-.9658,2.3994,3.5816,3.5816,0,0,1-2.5781.919,5.9385,5.9385,0,0,1-1.6875-.2813Q296.4637,121.48,296.4637,120.9744Z" style="fill: #0158a4"/>
      <path id="fullLogo-17" data-name="fullLogo" d="M311.201,120.0184a1.5835,1.5835,0,0,1,.45-.2442c.0869,0,.1308.0967.1308.291a4.3376,4.3376,0,0,1-.0937.7774q-.1128.5815-1.1621.8906a6.8,6.8,0,0,1-1.9131.31q-4.2364,0-4.2373-3.8809a7.2393,7.2393,0,0,1,1.2754-4.4346,4.5212,4.5212,0,0,1,3.8808-1.7158,3.1806,3.1806,0,0,1,2.3721.7969,2.4281,2.4281,0,0,1,.7783,1.7158,3.04,3.04,0,0,1-.4219,1.6123,2.81,2.81,0,0,1-1.1718,1.0694,7.6056,7.6056,0,0,1-3.4688.73,8.7224,8.7224,0,0,1-1.6123-.1308v.1875a2.6511,2.6511,0,0,0,.7031,2.0908,3.0187,3.0187,0,0,0,2.0342.6094A4.6929,4.6929,0,0,0,311.201,120.0184Zm-1.8379-6.6563q-2.8125,0-3.2618,3.2246h1.3311a6.41,6.41,0,0,0,2.5313-.4121,2.189,2.189,0,0,0,.75-.582,1.392,1.392,0,0,0,.3369-.9375,1.1424,1.1424,0,0,0-.459-.918A1.8848,1.8848,0,0,0,309.3631,113.3621Z" style="fill: #0158a4"/>
      <path id="fullLogo-18" data-name="fullLogo" d="M315.42,113.3621l-.0185-.6377q0-.4322,1.05-.4316.4878,0,.4873,1.4062a1.1571,1.1571,0,0,1-.0186.1875,3.8788,3.8788,0,0,1,1.1162-1.3779,2.2756,2.2756,0,0,1,1.3779-.4971q.9375,0,.9375.7129a1.4845,1.4845,0,0,1-.1875.6934q-.1875.356-.3564.3564a1.0189,1.0189,0,0,1-.2441-.1035,1.0825,1.0825,0,0,0-.4873-.1025,1.8282,1.8282,0,0,0-1.2842.6748,5.47,5.47,0,0,0-1.0967,2.2871l-.5254,5.0254c-.0371.2754-.3.4121-.7871.4121h-.0752q-.7134,0-.7129-.3936Q315.4207,114.2615,315.42,113.3621Z" style="fill: #0158a4"/>
      <path id="fullLogo-19" data-name="fullLogo" d="M320.951,118.0115a7.1581,7.1581,0,0,1,1.1435-4.1435,4.0581,4.0581,0,0,1,1.5567-1.3594,4.8874,4.8874,0,0,1,2.25-.4971,3.634,3.634,0,0,1,2.8027,1.041,4.2988,4.2988,0,0,1,.9658,3.0284,6.7409,6.7409,0,0,1-1.2842,4.415,4.368,4.368,0,0,1-3.5537,1.5469,3.821,3.821,0,0,1-2.8965-1.0313A4.1819,4.1819,0,0,1,320.951,118.0115Zm3.9746,2.6817a2.6316,2.6316,0,0,0,2.3066-1.1719,5.9945,5.9945,0,0,0,.8066-3.4033,3.173,3.173,0,0,0-.5722-2.0811,2.1945,2.1945,0,0,0-1.7715-.6748,2.6189,2.6189,0,0,0-2.3252,1.2188,6.0656,6.0656,0,0,0-.8066,3.375Q322.5633,120.6937,324.9256,120.6932Z" style="fill: #0158a4"/>
      <path id="fullLogo-20" data-name="fullLogo" d="M339.42,114.449l-.5439,5.4756q0,.5625.2255.6748a1.0745,1.0745,0,0,0,.45.0938l.5059-.0938c.0752,0,.1123.0684.1123.2061a3.44,3.44,0,0,1-.0654.5722.661.661,0,0,1-.4317.5157,1.8511,1.8511,0,0,1-.7031.1494q-1.6875,0-1.6875-1.8369,0-.3384.2627-2.7852t.2627-2.5967a1.268,1.268,0,0,0-1.4248-1.4433,2.5568,2.5568,0,0,0-1.6035.6933,5.04,5.04,0,0,0-1.3779,2.3252l-.544,5.1563c-.0371.2754-.3.4121-.7871.4121h-.0752q-.7134,0-.7129-.3936.8262-7.33.8252-8.2119l-.0185-.6377q0-.4322,1.05-.4316.4878,0,.4873,1.4062a1.23,1.23,0,0,1-.0186.2061,4.0558,4.0558,0,0,1,3.3379-1.8936A2.1711,2.1711,0,0,1,339.42,114.449Z" style="fill: #0158a4"/>
      <path id="fullLogo-21" data-name="fullLogo" d="M341.35,120.9744q0-1.0122.3008-1.0127a1.2512,1.2512,0,0,1,.3369.169,3.3681,3.3681,0,0,0,1.8379.5625,2.402,2.402,0,0,0,1.5185-.4405,1.3879,1.3879,0,0,0,.5625-1.1445,1.4555,1.4555,0,0,0-.4219-1.1055,2.7451,2.7451,0,0,0-1.0214-.6093q-.6006-.2065-1.1915-.4414a2.4429,2.4429,0,0,1-1.0117-.7588,2.1189,2.1189,0,0,1-.4218-1.3692,2.4881,2.4881,0,0,1,.9648-2.0342,3.78,3.78,0,0,1,2.4473-.7783,5.4671,5.4671,0,0,1,1.5654.2256q.76.2241.76.6748a1.15,1.15,0,0,1-.2344.544c-.1563.2373-.3037.3554-.44.3554a1.8091,1.8091,0,0,1-.2442-.1123,3.21,3.21,0,0,0-1.4531-.3369,2.0935,2.0935,0,0,0-1.2471.3369,1.0659,1.0659,0,0,0-.0556,1.7256,3.5437,3.5437,0,0,0,1.0029.5244q.59.2065,1.19.4785a2.4971,2.4971,0,0,1,1.0127.8526,2.4376,2.4376,0,0,1,.4121,1.4443,3.1577,3.1577,0,0,1-.9658,2.3994,3.5814,3.5814,0,0,1-2.5781.919,5.9385,5.9385,0,0,1-1.6875-.2813Q341.35,121.48,341.35,120.9744Z" style="fill: #0158a4"/>
      <path id="fullLogo-22" data-name="fullLogo" d="M358.5437,116.5555v-1.2373q0-.4131.75-.4131h.3194c.499,0,.75.1377.75.4131v1.2373c0,.2754-.251.4121-.75.4121h-.3194C358.7937,116.9676,358.5437,116.8309,358.5437,116.5555Z" style="fill: #0158a4"/>
      <path id="fullLogo-23" data-name="fullLogo" d="M376.0847,110.118a3,3,0,0,0-1.8837.5908,2.0107,2.0107,0,0,0-.77,1.6963,1.3186,1.3186,0,0,0,.4033.9658,2.7264,2.7264,0,0,0,1.0225.6279q.6182.2256,1.3213.544t1.3223.666a2.7464,2.7464,0,0,1,1.0214,1.0312,3.1,3.1,0,0,1,.4034,1.6026,3.9122,3.9122,0,0,1-1.2657,3.0664,4.7732,4.7732,0,0,1-3.31,1.1338,8.2232,8.2232,0,0,1-2.0811-.29q-1.106-.2914-1.1064-.872,0-1.2187.3-1.2188a2.4483,2.4483,0,0,1,.4131.2344,5.4931,5.4931,0,0,0,1.0781.4775,5.1879,5.1879,0,0,0,1.6963.2442,2.6008,2.6008,0,0,0,1.7812-.7032,2.3133,2.3133,0,0,0,.7881-1.8095,1.64,1.64,0,0,0-.5625-1.2744,4.3652,4.3652,0,0,0-1.3691-.8164q-.8056-.3091-1.6123-.6563a3.5434,3.5434,0,0,1-1.3692-1.04,2.6527,2.6527,0,0,1-.5625-1.7256,3.5386,3.5386,0,0,1,1.2569-2.8213,4.8591,4.8591,0,0,1,3.2812-1.0781,6.0865,6.0865,0,0,1,1.9121.3281q.9946.328.9942.7969a1.2917,1.2917,0,0,1-.2911.6q-.29.4131-.4218.4131a1.1733,1.1733,0,0,1-.375-.1875A3.9186,3.9186,0,0,0,376.0847,110.118Z" style="fill: #0158a4"/>
      <path id="fullLogo-24" data-name="fullLogo" d="M388.9568,120.6932l.5059-.0938c.0752,0,.1133.0684.1133.2061a3.4617,3.4617,0,0,1-.0664.5722.6616.6616,0,0,1-.4307.5157,1.8593,1.8593,0,0,1-.7031.1494q-1.6875,0-1.6875-1.8369,0-.3384.2627-2.7852t.2617-2.5967a1.2676,1.2676,0,0,0-1.4248-1.4433,2.5307,2.5307,0,0,0-1.5938.6845,5.1237,5.1237,0,0,0-1.3877,2.2969l-.5429,5.1934q-.0572.4131-.7881.4121H381.4q-.7119,0-.7119-.3936l1.4062-13.331q.0557-.4116.7871-.4121h.0752c.4746,0,.7129.1377.7129.4121l-.6006,5.5879a3.9849,3.9849,0,0,1,3.2813-1.8194,2.1715,2.1715,0,0,1,2.4756,2.4375l-.544,5.4756q0,.5625.2432.6748A.9546.9546,0,0,0,388.9568,120.6932Z" style="fill: #0158a4"/>
      <path id="fullLogo-25" data-name="fullLogo" d="M399.157,120.6932l.5059-.0938c.0752,0,.1123.0684.1123.2061a3.4309,3.4309,0,0,1-.0655.5722.6614.6614,0,0,1-.4306.5157,1.8593,1.8593,0,0,1-.7031.1494q-1.6875,0-1.6875-1.8369v-.1875a3.2467,3.2467,0,0,1-2.9258,2.0244,3.07,3.07,0,0,1-2.0059-.7871,2.9851,2.9851,0,0,1-.8154-1.2657,5.7572,5.7572,0,0,1-.31-1.997,6.9821,6.9821,0,0,1,1.2559-4.3125,3.9742,3.9742,0,0,1,3.3379-1.669,3.3834,3.3834,0,0,1,2.3808,1.0127,3.89,3.89,0,0,1,.1875-.5058.71.71,0,0,1,.6563-.4317h.1133c.3115,0,.4687.1309.4687.3936q-.75,6.9375-.75,7.331a1.9916,1.9916,0,0,0,.0557.5625.3648.3648,0,0,0,.1689.2256A1.0742,1.0742,0,0,0,399.157,120.6932Zm-3.581-7.3125q-3.1128,0-3.1133,4.5,0,2.7934,1.8564,2.7939a2.2325,2.2325,0,0,0,1.5186-.7412,5.7063,5.7063,0,0,0,1.2939-2.4277l.2442-2.4561c.0244-.2256.0752-.5381.1494-.9375A3.0766,3.0766,0,0,0,395.576,113.3807Z" style="fill: #0158a4"/>
      <path id="fullLogo-26" data-name="fullLogo" d="M401.7439,113.3621l-.0185-.6377q0-.4322,1.05-.4316.4878,0,.4883,1.4062a1.4636,1.4636,0,0,1-.02.2442,3.3544,3.3544,0,0,1,3.0381-1.9317,3.7441,3.7441,0,0,1,2.25.7686,2.8631,2.8631,0,0,1,.9092,1.2383,5.0021,5.0021,0,0,1,.3467,1.9492,7.0587,7.0587,0,0,1-1.2842,4.3789,4.0793,4.0793,0,0,1-3.4219,1.6963,3.6355,3.6355,0,0,1-2.5312-.9932l-.45,4.3682q-.0556.4131-.7871.4131h-.0752q-.7134,0-.7129-.3946Q401.744,114.2625,401.7439,113.3621Zm4.1817.0186a2.3518,2.3518,0,0,0-1.5655.7314,5.5616,5.5616,0,0,0-1.3408,2.3809q-.1318,1.125-.3379,3.3564a3.1971,3.1971,0,0,0,2.1758.8438q3.2988,0,3.3-4.6123Q408.157,113.38,405.9256,113.3807Z" style="fill: #0158a4"/>
      <path id="fullLogo-27" data-name="fullLogo" d="M414.1013,120.6932l.5059-.0938c.0752,0,.1123.0684.1123.2061a3.44,3.44,0,0,1-.0654.5722.661.661,0,0,1-.4317.5157,1.8511,1.8511,0,0,1-.7031.1494q-1.6685,0-1.668-1.7813,0-.6753.375-4.2187t.3936-3.544q.0557-.4116.7871-.4121h.0752c.4746,0,.7129.1377.7129.4121q-.75,6.8628-.75,7.3223a1.2811,1.2811,0,0,0,.1123.6377.4206.4206,0,0,0,.2246.206A1.4,1.4,0,0,0,414.1013,120.6932Zm-.3193-12.8623h.2256q.7119,0,.7119.4121l-.1123,1.1064q0,.4116-.7129.4121H413.67c-.5254,0-.7871-.1377-.7871-.4121l.1123-1.1064Q413.0506,107.8314,413.782,107.8309Z" style="fill: #0158a4"/>
      <path id="fullLogo-28" data-name="fullLogo" d="M424.282,114.449l-.5439,5.4756q0,.5625.2256.6748a1.0737,1.0737,0,0,0,.45.0938l.5059-.0938c.0752,0,.1123.0684.1123.2061a3.44,3.44,0,0,1-.0654.5722.661.661,0,0,1-.4317.5157,1.8511,1.8511,0,0,1-.7031.1494q-1.6875,0-1.6875-1.8369,0-.3384.2627-2.7852t.2627-2.5967a1.268,1.268,0,0,0-1.4248-1.4433,2.5568,2.5568,0,0,0-1.6035.6933,5.04,5.04,0,0,0-1.3779,2.3252l-.544,5.1563c-.0371.2754-.3.4121-.7871.4121h-.0752q-.7134,0-.7129-.3936.8262-7.33.8252-8.2119l-.0185-.6377q0-.4322,1.05-.4316.4878,0,.4873,1.4062a1.23,1.23,0,0,1-.0186.2061,4.0558,4.0558,0,0,1,3.3379-1.8936A2.1711,2.1711,0,0,1,424.282,114.449Z" style="fill: #0158a4"/>
      <path id="fullLogo-29" data-name="fullLogo" d="M429.701,125.9051a5.4613,5.4613,0,0,1-2.2881-.4307q-.9375-.4322-.9375-.9,0-1.0312.2627-1.0312a2.1213,2.1213,0,0,1,.3847.2529,4.344,4.344,0,0,0,1.0313.5068,4.4293,4.4293,0,0,0,1.5469.253,2.3769,2.3769,0,0,0,2.1-1.0879,7.7856,7.7856,0,0,0,.9375-3.5625,3.33,3.33,0,0,1-3.0186,2.0254,3.2265,3.2265,0,0,1-2.0625-.7686,2.8158,2.8158,0,0,1-.8437-1.2285,5.3169,5.3169,0,0,1-.3194-1.94,6.8692,6.8692,0,0,1,1.2852-4.3125,4.0821,4.0821,0,0,1,3.4023-1.669,3.58,3.58,0,0,1,2.4756,1.0127,3.89,3.89,0,0,1,.1875-.5058.7076.7076,0,0,1,.6563-.4317h.1123q.4688,0,.4687.3936l-.8066,7.5937a8.6558,8.6558,0,0,1-1.4151,4.5469A3.8915,3.8915,0,0,1,429.701,125.9051Zm1.6308-12.5244q-3.2065,0-3.206,4.5,0,2.6807,1.95,2.6806a2.3314,2.3314,0,0,0,1.5654-.75,5.7486,5.7486,0,0,0,1.3408-2.456l.2432-2.3057q.0381-.3384.15-.9375A3.3534,3.3534,0,0,0,431.3318,113.3807Z" style="fill: #0158a4"/>
      <path id="fullLogo-30" data-name="fullLogo" d="M440.9129,118.0115a7.1581,7.1581,0,0,1,1.1435-4.1435,4.0581,4.0581,0,0,1,1.5567-1.3594,4.8874,4.8874,0,0,1,2.25-.4971,3.634,3.634,0,0,1,2.8027,1.041,4.2983,4.2983,0,0,1,.9658,3.0284,6.7409,6.7409,0,0,1-1.2842,4.415,4.368,4.368,0,0,1-3.5537,1.5469,3.821,3.821,0,0,1-2.8965-1.0313A4.1819,4.1819,0,0,1,440.9129,118.0115Zm3.9746,2.6817a2.6316,2.6316,0,0,0,2.3066-1.1719,5.9945,5.9945,0,0,0,.8067-3.4033,3.1724,3.1724,0,0,0-.5723-2.0811,2.1943,2.1943,0,0,0-1.7715-.6748,2.6189,2.6189,0,0,0-2.3252,1.2188,6.0656,6.0656,0,0,0-.8066,3.375Q442.5252,120.6937,444.8875,120.6932Z" style="fill: #0158a4"/>
      <path id="fullLogo-31" data-name="fullLogo" d="M459.7,120.6932l.5058-.0938c.0752,0,.1123.0684.1123.2061a3.4287,3.4287,0,0,1-.0654.5722.6609.6609,0,0,1-.4316.5157,1.8519,1.8519,0,0,1-.7031.1494q-1.6875,0-1.6875-1.8369v-.1875a3.9394,3.9394,0,0,1-3.337,2.0244,2.1714,2.1714,0,0,1-2.4755-2.4375l.7128-7.1065q.0558-.4116.7872-.4121h.0751q.7134,0,.7129.4121-.6753,6.4688-.6748,6.7315a1.2679,1.2679,0,0,0,1.4248,1.4443,2.5079,2.5079,0,0,0,1.6221-.7314,5.3814,5.3814,0,0,0,1.3779-2.4561l.5245-4.9883q.057-.4116.788-.4121h.0752q.7119,0,.7119.4121-.731,6.8628-.7314,7.2852a2.12,2.12,0,0,0,.0566.59.3618.3618,0,0,0,.169.2256A1.0742,1.0742,0,0,0,459.7,120.6932Z" style="fill: #0158a4"/>
      <path id="fullLogo-32" data-name="fullLogo" d="M462.7928,113.3621l-.0186-.6377q0-.4322,1.05-.4316.4878,0,.4873,1.4062a1.1554,1.1554,0,0,1-.0185.1875,3.8777,3.8777,0,0,1,1.1162-1.3779,2.2751,2.2751,0,0,1,1.3779-.4971q.9375,0,.9375.7129a1.4845,1.4845,0,0,1-.1875.6934q-.1875.356-.3564.3564a1.0187,1.0187,0,0,1-.2442-.1035,1.0825,1.0825,0,0,0-.4873-.1025,1.8284,1.8284,0,0,0-1.2842.6748,5.472,5.472,0,0,0-1.0967,2.2871l-.5253,5.0254c-.0372.2754-.3.4121-.7872.4121h-.0751q-.7134,0-.7129-.3936Q462.7937,114.2615,462.7928,113.3621Z" style="fill: #0158a4"/>
      <path id="fullLogo-33" data-name="fullLogo" d="M477.3426,112.1238c.2,0,.3.1192.3.3565a1.0328,1.0328,0,0,1-.2618.6845.76.76,0,0,1-.582.31h-1.2373l-.8437,8.0811c-.0371.2754-.3.4121-.7871.4121h-.0752c-.4756,0-.7129-.1367-.7129-.4121l.8437-8.0811h-.75q-.3179,0-.3183-.5068,0-.8437.4687-.8438h.75l.1875-1.8935a2.4267,2.4267,0,0,1,2.6816-2.4746q1.33,0,1.3311.581a1.4273,1.4273,0,0,1-.1689.544q-.1685.3559-.3184.3564a.9627.9627,0,0,1-.1133-.0195,2.4794,2.4794,0,0,0-.7773-.1123,1.0185,1.0185,0,0,0-.7227.2627,1.6741,1.6741,0,0,0-.3555,1.05l-.1689,1.706Z" style="fill: #0158a4"/>
      <path id="fullLogo-34" data-name="fullLogo" d="M486.8494,120.6932l.5059-.0938c.0752,0,.1123.0684.1123.2061a3.4309,3.4309,0,0,1-.0655.5722.6609.6609,0,0,1-.4316.5157,1.8515,1.8515,0,0,1-.7031.1494q-1.6875,0-1.6875-1.8369v-.1875a3.9392,3.9392,0,0,1-3.3369,2.0244,2.1715,2.1715,0,0,1-2.4756-2.4375l.7129-7.1065q.0557-.4116.7871-.4121h.0752q.7133,0,.7129.4121-.6753,6.4688-.6749,6.7315a1.268,1.268,0,0,0,1.4249,1.4443,2.5078,2.5078,0,0,0,1.622-.7314,5.3823,5.3823,0,0,0,1.378-2.4561l.5244-4.9883q.0571-.4116.7881-.4121h.0751q.712,0,.712.4121-.731,6.8628-.7315,7.2852a2.1155,2.1155,0,0,0,.0567.59.3613.3613,0,0,0,.1689.2256A1.0742,1.0742,0,0,0,486.8494,120.6932Z" style="fill: #0158a4"/>
      <path id="fullLogo-35" data-name="fullLogo" d="M491.3484,109.743h.0752c.4746,0,.7129.1377.7129.4121l-.207,1.9687h1.5937c.2,0,.3008.1192.3008.3565a1.0344,1.0344,0,0,1-.2627.6845.76.76,0,0,1-.581.31h-1.2q-.6372,5.7744-.6377,6.1494,0,1.0693.9,1.0694a2.2493,2.2493,0,0,0,.581-.0655c.1621-.0439.25-.0664.2627-.0664.0869,0,.1309.0782.1309.2344a2.87,2.87,0,0,1-.0938.6289q-.1509.6181-1.2754.6182a1.84,1.84,0,0,1-2.1-2.0625l.6563-6.5059h-.9375c-.2129,0-.3184-.1689-.3184-.5068q0-.8437.4688-.8438h.9375l.2246-1.9687Q490.6356,109.7435,491.3484,109.743Z" style="fill: #0158a4"/>
      <path id="fullLogo-36" data-name="fullLogo" d="M503.33,120.6932l.5058-.0938c.0752,0,.1123.0684.1123.2061a3.44,3.44,0,0,1-.0654.5722.6609.6609,0,0,1-.4316.5157,1.852,1.852,0,0,1-.7032.1494q-1.6875,0-1.6875-1.8369v-.1875a3.9392,3.9392,0,0,1-3.3369,2.0244,2.1715,2.1715,0,0,1-2.4756-2.4375l.7129-7.1065q.0557-.4116.7871-.4121h.0752q.7134,0,.7129.4121-.6753,6.4688-.6748,6.7315a1.2679,1.2679,0,0,0,1.4248,1.4443,2.5083,2.5083,0,0,0,1.6221-.7314,5.3823,5.3823,0,0,0,1.3779-2.4561l.5244-4.9883q.0572-.4116.7881-.4121h.0752q.7119,0,.7119.4121-.731,6.8628-.7314,7.2852a2.12,2.12,0,0,0,.0566.59.3614.3614,0,0,0,.169.2256A1.0742,1.0742,0,0,0,503.33,120.6932Z" style="fill: #0158a4"/>
      <path id="fullLogo-37" data-name="fullLogo" d="M506.4226,113.3621l-.0185-.6377q0-.4322,1.05-.4316.4878,0,.4873,1.4062a1.1571,1.1571,0,0,1-.0186.1875,3.8788,3.8788,0,0,1,1.1162-1.3779,2.2756,2.2756,0,0,1,1.378-.4971q.9375,0,.9375.7129a1.4845,1.4845,0,0,1-.1875.6934q-.1875.356-.3565.3564a1.0189,1.0189,0,0,1-.2441-.1035,1.0825,1.0825,0,0,0-.4873-.1025,1.8282,1.8282,0,0,0-1.2842.6748,5.4707,5.4707,0,0,0-1.0967,2.2871l-.5254,5.0254c-.0371.2754-.3.4121-.7871.4121H506.31q-.7134,0-.7129-.3936Q506.4236,114.2615,506.4226,113.3621Z" style="fill: #0158a4"/>
      <path id="fullLogo-38" data-name="fullLogo" d="M518.7976,120.0184a1.5848,1.5848,0,0,1,.45-.2442c.0869,0,.1309.0967.1309.291a4.3393,4.3393,0,0,1-.0938.7774q-.1128.5815-1.1621.8906a6.8,6.8,0,0,1-1.9131.31q-4.2363,0-4.2373-3.8809a7.2393,7.2393,0,0,1,1.2754-4.4346,4.5214,4.5214,0,0,1,3.8809-1.7158,3.1806,3.1806,0,0,1,2.3721.7969,2.4281,2.4281,0,0,1,.7783,1.7158,3.04,3.04,0,0,1-.4219,1.6123,2.81,2.81,0,0,1-1.1719,1.0694,7.6051,7.6051,0,0,1-3.4687.73,8.7224,8.7224,0,0,1-1.6123-.1308v.1875a2.6511,2.6511,0,0,0,.7031,2.0908,3.0187,3.0187,0,0,0,2.0342.6094A4.6925,4.6925,0,0,0,518.7976,120.0184Zm-1.8379-6.6563q-2.8125,0-3.2617,3.2246h1.3311a6.4093,6.4093,0,0,0,2.5312-.4121,2.189,2.189,0,0,0,.75-.582,1.392,1.392,0,0,0,.3369-.9375,1.1423,1.1423,0,0,0-.4589-.918A1.8851,1.8851,0,0,0,516.96,113.3621Z" style="fill: #0158a4"/>
      <path id="fullLogo-39" data-name="fullLogo" d="M525.8474,120.9744q0-1.0122.3008-1.0127a1.2512,1.2512,0,0,1,.3369.169,3.3681,3.3681,0,0,0,1.8379.5625,2.4023,2.4023,0,0,0,1.5186-.4405,1.3879,1.3879,0,0,0,.5625-1.1445,1.4555,1.4555,0,0,0-.4219-1.1055,2.7455,2.7455,0,0,0-1.0215-.6093q-.6006-.2065-1.1914-.4414a2.4422,2.4422,0,0,1-1.0117-.7588,2.1183,2.1183,0,0,1-.4219-1.3692,2.4882,2.4882,0,0,1,.9649-2.0342,3.78,3.78,0,0,1,2.4472-.7783,5.4678,5.4678,0,0,1,1.5655.2256q.76.2241.76.6748a1.15,1.15,0,0,1-.2343.544c-.1563.2373-.3038.3554-.4405.3554a1.8117,1.8117,0,0,1-.2441-.1123,3.21,3.21,0,0,0-1.4531-.3369,2.0935,2.0935,0,0,0-1.2471.3369,1.0659,1.0659,0,0,0-.0557,1.7256,3.5443,3.5443,0,0,0,1.003.5244q.59.2065,1.19.4785a2.4971,2.4971,0,0,1,1.0127.8526,2.4376,2.4376,0,0,1,.4121,1.4443,3.1577,3.1577,0,0,1-.9658,2.3994,3.5817,3.5817,0,0,1-2.5782.919,5.9385,5.9385,0,0,1-1.6875-.2813Q525.8474,121.48,525.8474,120.9744Z" style="fill: #0158a4"/>
      <path id="fullLogo-40" data-name="fullLogo" d="M540.5847,120.0184a1.5848,1.5848,0,0,1,.45-.2442c.087,0,.1309.0967.1309.291a4.3376,4.3376,0,0,1-.0937.7774q-.1128.5815-1.1622.8906a6.8,6.8,0,0,1-1.913.31q-4.2364,0-4.2373-3.8809a7.24,7.24,0,0,1,1.2753-4.4346,4.5215,4.5215,0,0,1,3.8809-1.7158,3.1806,3.1806,0,0,1,2.3721.7969,2.4281,2.4281,0,0,1,.7783,1.7158,3.04,3.04,0,0,1-.4219,1.6123,2.81,2.81,0,0,1-1.1719,1.0694,7.6048,7.6048,0,0,1-3.4687.73,8.7224,8.7224,0,0,1-1.6123-.1308v.1875a2.6511,2.6511,0,0,0,.7031,2.0908,3.0187,3.0187,0,0,0,2.0342.6094A4.6925,4.6925,0,0,0,540.5847,120.0184Zm-1.8378-6.6563q-2.8125,0-3.2618,3.2246h1.3311a6.4093,6.4093,0,0,0,2.5312-.4121,2.1872,2.1872,0,0,0,.75-.582,1.3916,1.3916,0,0,0,.337-.9375,1.1424,1.1424,0,0,0-.459-.918A1.8848,1.8848,0,0,0,538.7469,113.3621Z" style="fill: #0158a4"/>
      <path id="fullLogo-41" data-name="fullLogo" d="M546.51,120.6932l.5068-.0938c.0752,0,.1123.0684.1123.2061a3.44,3.44,0,0,1-.0654.5722.661.661,0,0,1-.4317.5157,1.8511,1.8511,0,0,1-.7031.1494q-1.6875,0-1.6875-1.8369,0-.8437.9-9.15l.3183-2.8125c.0381-.2744.3-.4121.7881-.4121h.0743q.7133,0,.7128.4121-1.2,11.12-1.2,11.541a2.0809,2.0809,0,0,0,.0567.59.3443.3443,0,0,0,.1875.2256A.95.95,0,0,0,546.51,120.6932Z" style="fill: #0158a4"/>
      <path id="fullLogo-42" data-name="fullLogo" d="M552.4344,121.9676h-.6563q-.6562,0-.7314-.3-2.0992-9.1494-2.1-9.2627.038-.3178.8437-.3184h.15c.4375,0,.6807.1006.7305.3l1.707,7.5938,3.3184-7.5938c.0869-.1992.3681-.3.8437-.3s.7129.0938.7129.2813a.754.754,0,0,1-.0752.3l-3.9756,9C553.116,121.868,552.8592,121.9676,552.4344,121.9676Z" style="fill: #0158a4"/>
      <path id="fullLogo-43" data-name="fullLogo" d="M564.7908,120.0184a1.5848,1.5848,0,0,1,.45-.2442c.0869,0,.1309.0967.1309.291a4.3393,4.3393,0,0,1-.0938.7774q-.1128.5815-1.1621.8906a6.8,6.8,0,0,1-1.9131.31q-4.2363,0-4.2373-3.8809a7.2393,7.2393,0,0,1,1.2754-4.4346,4.5214,4.5214,0,0,1,3.8809-1.7158,3.18,3.18,0,0,1,2.372.7969,2.4277,2.4277,0,0,1,.7783,1.7158,3.04,3.04,0,0,1-.4218,1.6123,2.8106,2.8106,0,0,1-1.1719,1.0694,7.6053,7.6053,0,0,1-3.4688.73,8.7232,8.7232,0,0,1-1.6123-.1308v.1875a2.6508,2.6508,0,0,0,.7032,2.0908,3.0184,3.0184,0,0,0,2.0341.6094A4.6929,4.6929,0,0,0,564.7908,120.0184Zm-1.8379-6.6563q-2.8125,0-3.2617,3.2246h1.331a6.41,6.41,0,0,0,2.5313-.4121,2.189,2.189,0,0,0,.75-.582,1.392,1.392,0,0,0,.3369-.9375,1.1421,1.1421,0,0,0-.459-.918A1.8846,1.8846,0,0,0,562.9529,113.3621Z" style="fill: #0158a4"/>
      <path id="fullLogo-44" data-name="fullLogo" d="M567.5281,120.9744q0-1.0122.3008-1.0127a1.2512,1.2512,0,0,1,.3369.169,3.3681,3.3681,0,0,0,1.8379.5625,2.402,2.402,0,0,0,1.5185-.4405,1.3879,1.3879,0,0,0,.5625-1.1445,1.4558,1.4558,0,0,0-.4218-1.1055,2.7463,2.7463,0,0,0-1.0215-.6093q-.6006-.2065-1.1914-.4414a2.4416,2.4416,0,0,1-1.0117-.7588,2.1183,2.1183,0,0,1-.4219-1.3692,2.4884,2.4884,0,0,1,.9648-2.0342,3.78,3.78,0,0,1,2.4473-.7783,5.4666,5.4666,0,0,1,1.5654.2256q.76.2241.76.6748a1.1489,1.1489,0,0,1-.2344.544c-.1562.2373-.3037.3554-.44.3554a1.8091,1.8091,0,0,1-.2442-.1123,3.21,3.21,0,0,0-1.4531-.3369,2.0934,2.0934,0,0,0-1.247.3369,1.0659,1.0659,0,0,0-.0557,1.7256,3.5451,3.5451,0,0,0,1.0029.5244q.59.2065,1.19.4785a2.4965,2.4965,0,0,1,1.0127.8526,2.437,2.437,0,0,1,.4122,1.4443,3.1574,3.1574,0,0,1-.9659,2.3994,3.5813,3.5813,0,0,1-2.5781.919,5.9385,5.9385,0,0,1-1.6875-.2813Q567.5281,121.48,567.5281,120.9744Z" style="fill: #0158a4"/>
      <path id="fullLogo-45" data-name="fullLogo" d="M144.1625,23.6923h14.2824V77.2585h23.2928V88.7809H144.1625Z" style="fill: #363636"/>
      <path id="fullLogo-46" data-name="fullLogo" d="M189.021,23.6923h14.2828V88.7809H189.021Z" style="fill: #363636"/>
      <path id="fullLogo-47" data-name="fullLogo" d="M216.6266,23.6923h37.6713V35.2147H230.9094V50.7831h22.8135V62.3055H230.9094V88.7809H216.6266Z" style="fill: #363636"/>
      <path id="fullLogo-48" data-name="fullLogo" d="M264.4569,23.6923h39.78V35.2147H278.74v14.777H303.758V61.5141H278.74V77.2585h25.4971V88.7809h-39.78Z" style="fill: #363636"/>
      <path id="fullLogo-49" data-name="fullLogo" d="M37.6308,42.6757l-1.07-1.6075-1.7939-2.6954L30.762,32.3544l-1.7939-2.6966L21.324,18.17,4.783,42.5131A27.6532,27.6532,0,0,0,0,57.9207v.0057A27.6671,27.6671,0,0,0,4.6329,73.3907L20.9386,97.8952l7.7521-11.4081-4.0051-6.0184-3.689,5.43-10.79-16.217a20.973,20.973,0,0,1,.1136-23.4051L21.266,30.1682l3.639,5.4693,1.7939,2.6955L30.74,44.406l1.3164,1.9792c.1888.2842.3593.58.5344.8719a20.8855,20.8855,0,0,1-.1058,21.6659A24.3259,24.3259,0,0,0,33.9588,71.49l2.4362,3.6607,1.0857-1.5973a27.6659,27.6659,0,0,0,4.7815-15.4075V58.14A27.66,27.66,0,0,0,37.6308,42.6757Z" style="fill: url(#linear-gradient)"/>
      <path id="fullLogo-50" data-name="fullLogo" d="M105.5431,35.8638,81.6786.0011,62.349,28.4482l4.0039,6.02L81.6206,11.9993,99.9692,39.5721a33.8042,33.8042,0,0,1-.1831,37.7146l-18.6122,27.39L66.12,82.0523l-1.794-2.6954-1.4994-2.2544a34.0533,34.0533,0,0,1-2.3135-4.0653,33.79,33.79,0,0,1-1.3187-26.1836c-.3684-.689-.7583-1.37-1.1948-2.0259L54.847,40.0894A40.4748,40.4748,0,0,0,50.4736,58.173v.008A40.48,40.48,0,0,0,54.67,76.3192q.7452,1.5092,1.6165,2.9581c.3115.5172.631,1.03.9663,1.5347l3.01,4.5246,1.7939,2.6954,19.0591,28.6415L105.3237,81.05a40.47,40.47,0,0,0,6.9972-22.5469v-.0091A40.4823,40.4823,0,0,0,105.5431,35.8638Z" style="fill: url(#linear-gradient-2)"/>
      <path id="fullLogo-51" data-name="fullLogo" d="M81.68,0,62.349,28.4482l4.0039,6.0184L81.6206,11.9982,99.9692,39.5721a33.8016,33.8016,0,0,1-.1842,37.7146L81.1739,104.6753,66.121,82.0523l-1.7939-2.6954-1.5006-2.2544a33.9621,33.9621,0,0,1-2.3146-4.0653,33.8035,33.8035,0,0,1-1.3188-26.1836c-.3672-.689-.7571-1.3688-1.1936-2.0259L54.847,40.0894a40.47,40.47,0,0,0-4.3734,18.0825v.0091A40.461,40.461,0,0,0,54.6708,76.32q.7435,1.5073,1.6143,2.9569c.3115.5172.6321,1.03.9674,1.5336l3.0115,4.5257,1.7928,2.6954,19.0591,28.6415L105.3237,81.05a40.4928,40.4928,0,0,0,6.9983-22.548v-.008a40.4715,40.4715,0,0,0-6.78-22.631Z" style="fill: url(#linear-gradient-3)"/>
      <path id="fullLogo-52" data-name="fullLogo" d="M66.3222,39.85c-.0841-.1307-.1648-.2626-.2512-.3922l-1.5382-2.3112-4.005-6.0184-1.794-2.6966L46.2139,9.6154,32.5821,29.6748l4.005,6.02,9.5688-14.0809L54.6765,34.42l1.8155,2.7273,4.0051,6.02.16.2615a26.9687,26.9687,0,0,1,1.71,26.3609,30.9208,30.9208,0,0,0,2.9557,5.6524l.8186,1.2289A33.68,33.68,0,0,0,71.712,58.2958V58.289A33.6875,33.6875,0,0,0,66.3222,39.85Z" style="fill: url(#linear-gradient-4)"/>
      <path id="fullLogo-53" data-name="fullLogo" d="M54.4446,81.9875,45.8035,94.7041,36.3689,80.5255l-1.794-2.6966-3.1138-4.678c-.3024-.4559-.5809-.9243-.8549-1.3949a26.8839,26.8839,0,0,1-1.429-24.2829l-4.2551-6.3947a33.6867,33.6867,0,0,0-4.6758,16.9434v.0069a33.6839,33.6839,0,0,0,4.5109,16.9991c.3581.6207.7321,1.2334,1.13,1.8314l.62.9311,4.0051,6.0184,1.7939,2.6954,13.4386,20.1982L58.4428,88.015l-3.6879-5.5421C54.6481,82.3126,54.5492,82.1489,54.4446,81.9875Z" style="fill: url(#linear-gradient-5)"/>
      <rect id="fullLogo-54" data-name="fullLogo" x="335.493" y="23.321" width="0.5" height="65.9154" style="fill: #363636"/>
      <path id="fullLogo-55" data-name="fullLogo" d="M367.4373,53.2615V35.2654h2.3994V53.2615Z"/>
      <path id="fullLogo-56" data-name="fullLogo" d="M376.0369,40.7645l.05,1.75a3.5728,3.5728,0,0,1-.1.9492h.05a5.3019,5.3019,0,0,1,4.7734-2.999c3.0743,0,4.2744,1.8242,4.2744,4.9492v7.8476H382.76v-7.373c0-1.7246-.3-3.2744-2.3741-3.2744a4.2367,4.2367,0,0,0-4.1992,4.499v6.1484h-2.3242V40.7645Z"/>
      <path id="fullLogo-57" data-name="fullLogo" d="M391.3621,47.9129c-2.2246-.7246-3.7744-1.6748-3.7744-3.9238,0-2.0752,1.875-3.5244,4.4736-3.5244a8.763,8.763,0,0,1,3.5244.75v2.1a7.49,7.49,0,0,0-3.2744-.875c-1.4248,0-2.5488.5-2.5488,1.625,0,.999.875,1.4746,2.5742,2.0244,2.6494.874,3.9492,1.85,3.9492,3.9482,0,2.2744-1.85,3.5244-4.5488,3.5244a9.8035,9.8035,0,0,1-4.0742-.8242v-2.125a10.0863,10.0863,0,0,0,3.999,1.0244c1.3,0,2.4746-.4492,2.4746-1.624C394.1365,48.9373,393.2117,48.5125,391.3621,47.9129Z"/>
      <path id="fullLogo-58" data-name="fullLogo" d="M399.5125,40.7645V37.0154h2.2744v3.7491h3.7744v1.8994h-3.7744v6.4736c0,1.7744.8,2.374,1.85,2.374a5.8816,5.8816,0,0,0,2.35-.55v2.0244a6.2543,6.2543,0,0,1-2.8.5752,3.4167,3.4167,0,0,1-3.6992-3.7236V42.6639h-2.0488V40.7645Z"/>
      <path id="fullLogo-59" data-name="fullLogo" d="M409.0867,35.7156a1.4126,1.4126,0,1,1,0,2.8242,1.4126,1.4126,0,1,1,0-2.8242Zm1.1748,5.0489v12.497h-2.3242V40.7645Z"/>
      <path id="fullLogo-60" data-name="fullLogo" d="M414.4373,40.7645V37.0154h2.2744v3.7491h3.7744v1.8994h-3.7744v6.4736c0,1.7744.8,2.374,1.85,2.374a5.8816,5.8816,0,0,0,2.35-.55v2.0244a6.2543,6.2543,0,0,1-2.8.5752,3.4163,3.4163,0,0,1-3.6992-3.7236V42.6639h-2.0488V40.7645Z"/>
      <path id="fullLogo-61" data-name="fullLogo" d="M431.41,53.2615l-.05-1.75a5.2993,5.2993,0,0,1,.1-.9492h-.05a5.1845,5.1845,0,0,1-4.6484,2.999c-3.0742,0-4.2744-1.8242-4.2744-4.9482V40.7645h2.3242v7.373c0,1.7246.3,3.2744,2.375,3.2744a4.1852,4.1852,0,0,0,4.0742-4.499V40.7645h2.3242v12.497Z"/>
      <path id="fullLogo-62" data-name="fullLogo" d="M437.7615,40.7645V37.0154h2.2744v3.7491H443.81v1.8994h-3.7744v6.4736c0,1.7744.8,2.374,1.85,2.374a5.8816,5.8816,0,0,0,2.35-.55v2.0244a6.2543,6.2543,0,0,1-2.8.5752,3.4163,3.4163,0,0,1-3.6992-3.7236V42.6639h-2.0488V40.7645Z"/>
      <path id="fullLogo-63" data-name="fullLogo" d="M465.0086,53.2615h-2.1494l-.0508-1.4746a5.1889,5.1889,0,0,1,.0752-.9248h-.05a5.0266,5.0266,0,0,1-4.4239,2.6992c-3.3,0-5.7988-2.6738-5.7988-6.5478,0-3.9248,2.499-6.5488,5.749-6.5488a5.0878,5.0878,0,0,1,4.3487,2.2744h.05a5.7568,5.7568,0,0,1-.0752-1.0244V35.2654h2.3252Zm-10.1475-6.248c0,2.5986,1.5488,4.5234,3.874,4.5234,1.8741,0,3.9239-1.3994,3.9239-4.5234s-2.05-4.5244-3.9239-4.5244C456.41,42.4891,454.8611,44.3641,454.8611,47.0135Z"/>
      <path id="fullLogo-64" data-name="fullLogo" d="M479.6834,46.2879c0,.5-.05.9756-.05,1.2246h-9.2979v.0254c.0742,2.4492,1.7246,3.999,4.3487,3.999a9.0215,9.0215,0,0,0,4.5234-1.1748v2.125a9.8935,9.8935,0,0,1-4.6738,1.0742,6.2645,6.2645,0,0,1-6.6231-6.5478,6.2087,6.2087,0,0,1,6.124-6.5488A5.4845,5.4845,0,0,1,479.6834,46.2879Zm-5.6738-3.874a3.6708,3.6708,0,0,0-3.6495,3.4492h7.0235A3.2413,3.2413,0,0,0,474.01,42.4139Z"/>
      <path id="fullLogo-65" data-name="fullLogo" d="M489.7849,40.7645H491.96l.0245,1.75c.0254.4746-.05.85-.0245.9248h.0245a4.2081,4.2081,0,0,1,3.85-2.9746,3.5527,3.5527,0,0,1,.749.0751v2.2491a2.6662,2.6662,0,0,0-.6494-.0752c-2.4248,0-3.8242,2.6748-3.8242,5.1v5.4482h-2.3243Z"/>
      <path id="fullLogo-66" data-name="fullLogo" d="M509.3074,46.2879c0,.5-.05.9756-.05,1.2246H499.96v.0254c.0743,2.4492,1.7247,3.999,4.3487,3.999a9.0215,9.0215,0,0,0,4.5234-1.1748v2.125a9.8935,9.8935,0,0,1-4.6738,1.0742,6.2645,6.2645,0,0,1-6.6231-6.5478,6.2087,6.2087,0,0,1,6.1241-6.5488A5.4845,5.4845,0,0,1,509.3074,46.2879Zm-5.6738-3.874a3.6707,3.6707,0,0,0-3.6494,3.4492h7.0234A3.2413,3.2413,0,0,0,503.6336,42.4139Z"/>
      <path id="fullLogo-67" data-name="fullLogo" d="M517.5828,51.4871a7.2221,7.2221,0,0,0,3.7988-1.1v2.1738a7.8172,7.8172,0,0,1-3.9238,1,6.294,6.294,0,0,1-6.5234-6.5478,6.2942,6.2942,0,0,1,6.5234-6.5488,7.6163,7.6163,0,0,1,3.85.9746v2.1992a6.8581,6.8581,0,0,0-3.7246-1.1,4.2028,4.2028,0,0,0-4.2734,4.4746A4.1883,4.1883,0,0,0,517.5828,51.4871Z"/>
      <path id="fullLogo-68" data-name="fullLogo" d="M523.8338,35.2654h2.3v6.9493c0,.5742-.0752,1.0488-.0752,1.249h.0244a5.2407,5.2407,0,0,1,4.6992-2.999c3.0742,0,4.2744,1.8242,4.2744,4.9492v7.8476h-2.3252v-7.373c0-1.7246-.3-3.2744-2.374-3.2744a4.2367,4.2367,0,0,0-4.1992,4.499v6.1484h-2.3242Z"/>
      <path id="fullLogo-69" data-name="fullLogo" d="M549.5818,46.2879c0,.5-.05.9756-.05,1.2246h-9.2978v.0254c.0742,2.4492,1.7246,3.999,4.3486,3.999a9.0215,9.0215,0,0,0,4.5234-1.1748v2.125a9.8935,9.8935,0,0,1-4.6738,1.0742,6.2645,6.2645,0,0,1-6.623-6.5478,6.2087,6.2087,0,0,1,6.124-6.5488A5.4845,5.4845,0,0,1,549.5818,46.2879Zm-5.6738-3.874a3.6707,3.6707,0,0,0-3.6494,3.4492h7.0234A3.2413,3.2413,0,0,0,543.908,42.4139Z"/>
      <path id="fullLogo-70" data-name="fullLogo" d="M551.9588,40.7645h2.1748l.0244,1.75c.0254.4746-.05.85-.0244.9248h.0244a4.2081,4.2081,0,0,1,3.85-2.9746,3.5527,3.5527,0,0,1,.749.0751v2.2491a2.6662,2.6662,0,0,0-.6494-.0752c-2.4248,0-3.8242,2.6748-3.8242,5.1v5.4482h-2.3242Z"/>
      <path id="fullLogo-71" data-name="fullLogo" d="M566.3572,51.4871a7.2221,7.2221,0,0,0,3.7988-1.1v2.1738a7.8172,7.8172,0,0,1-3.9238,1,6.294,6.294,0,0,1-6.5234-6.5478,6.2942,6.2942,0,0,1,6.5234-6.5488,7.6086,7.6086,0,0,1,3.8486.9746v2.1992a6.8516,6.8516,0,0,0-3.7236-1.1,4.2035,4.2035,0,0,0-4.2744,4.4746A4.1891,4.1891,0,0,0,566.3572,51.4871Z"/>
      <path id="fullLogo-72" data-name="fullLogo" d="M572.6082,35.2654h2.3v6.9493c0,.5742-.0752,1.0488-.0752,1.249h.0244a5.2407,5.2407,0,0,1,4.6992-2.999c3.0742,0,4.2744,1.8242,4.2744,4.9492v7.8476h-2.3252v-7.373c0-1.7246-.3-3.2744-2.374-3.2744a4.2367,4.2367,0,0,0-4.1992,4.499v6.1484h-2.3242Z"/>
      <path id="fullLogo-73" data-name="fullLogo" d="M597.8562,46.2879c0,.5-.05.9756-.05,1.2246h-9.2978v.0254c.0742,2.4492,1.7246,3.999,4.3486,3.999a9.0215,9.0215,0,0,0,4.5234-1.1748v2.125a9.8935,9.8935,0,0,1-4.6738,1.0742,6.2645,6.2645,0,0,1-6.623-6.5478,6.2087,6.2087,0,0,1,6.124-6.5488A5.4845,5.4845,0,0,1,597.8562,46.2879Zm-5.6738-3.874a3.6707,3.6707,0,0,0-3.6494,3.4492h7.0234A3.2413,3.2413,0,0,0,592.1824,42.4139Z"/>
      <path id="fullLogo-74" data-name="fullLogo" d="M373.2615,62.2654c3.9492,0,6.3232,2.05,6.3232,5.4991a5.1626,5.1626,0,0,1-3.6738,5.0488l4.0733,7.4482H377.31l-3.7246-7.0478h-3.749v7.0478h-2.3994V62.2654Zm-3.4248,2.0254v6.9483h3.55c2.374,0,3.7988-1.3,3.7988-3.4746s-1.5-3.4737-3.999-3.4737Z"/>
      <path id="fullLogo-75" data-name="fullLogo" d="M393.31,73.2879c0,.5-.05.9756-.05,1.2246h-9.2978v.0254c.0742,2.4492,1.7246,3.999,4.3486,3.999a9.0215,9.0215,0,0,0,4.5234-1.1748v2.125a9.8935,9.8935,0,0,1-4.6738,1.0742,6.5556,6.5556,0,0,1-.499-13.0966A5.4845,5.4845,0,0,1,393.31,73.2879Zm-5.6738-3.874a3.6707,3.6707,0,0,0-3.6494,3.4492h7.0234A3.2413,3.2413,0,0,0,387.6365,69.4139Z"/>
      <path id="fullLogo-76" data-name="fullLogo" d="M399.0369,74.9129c-2.2246-.7246-3.7744-1.6748-3.7744-3.9238,0-2.0752,1.875-3.5244,4.4736-3.5244a8.763,8.763,0,0,1,3.5244.75v2.1a7.49,7.49,0,0,0-3.2744-.875c-1.4248,0-2.5488.5-2.5488,1.625,0,.999.875,1.4746,2.5742,2.0244,2.6494.874,3.9492,1.85,3.9492,3.9482,0,2.2744-1.85,3.5244-4.5488,3.5244a9.8035,9.8035,0,0,1-4.0742-.8242v-2.125a10.0863,10.0863,0,0,0,3.999,1.0244c1.3,0,2.4746-.4492,2.4746-1.624C401.8113,75.9373,400.8865,75.5125,399.0369,74.9129Z"/>
      <path id="fullLogo-77" data-name="fullLogo" d="M417.6092,73.2879c0,.5-.05.9756-.05,1.2246h-9.2979v.0254c.0742,2.4492,1.7246,3.999,4.3486,3.999a9.0219,9.0219,0,0,0,4.5235-1.1748v2.125a9.8939,9.8939,0,0,1-4.6739,1.0742,6.5556,6.5556,0,0,1-.499-13.0966A5.4845,5.4845,0,0,1,417.6092,73.2879Zm-5.6739-3.874a3.6707,3.6707,0,0,0-3.6494,3.4492h7.0235A3.2414,3.2414,0,0,0,411.9353,69.4139Z"/>
      <path id="fullLogo-78" data-name="fullLogo" d="M420.4861,68.39a10.1325,10.1325,0,0,1,4.3994-.9248c3.5235,0,5.2481,1.6992,5.2481,4.8242v7.9726h-2.1494l-.0245-1.4746a3.8748,3.8748,0,0,1,.0743-1h-.05a5.0381,5.0381,0,0,1-4.3487,2.7744c-2.3,0-3.9492-1.375-3.9492-3.6738,0-3.05,2.9248-4.5742,8.1484-3.85v-.624c0-2.1748-1.3-2.9248-3.2744-2.9248a8.63,8.63,0,0,0-4.0742,1.05Zm7.2979,6.2734c-4.0733-.6494-5.7979.45-5.7979,2.1494a1.8619,1.8619,0,0,0,2.0488,1.875A4.0377,4.0377,0,0,0,427.784,74.6629Z"/>
      <path id="fullLogo-79" data-name="fullLogo" d="M433.6365,67.7645h2.1748l.0244,1.75c.0254.4746-.05.85-.0244.9248h.0244a4.2081,4.2081,0,0,1,3.85-2.9746,3.5548,3.5548,0,0,1,.7491.0751v2.2491a2.668,2.668,0,0,0-.6495-.0752c-2.4248,0-3.8242,2.6748-3.8242,5.1v5.4482h-2.3242Z"/>
      <path id="fullLogo-80" data-name="fullLogo" d="M448.4851,78.4871a7.2225,7.2225,0,0,0,3.7989-1.1v2.1738a7.8174,7.8174,0,0,1-3.9239,1,6.5483,6.5483,0,0,1,0-13.0966,7.6163,7.6163,0,0,1,3.85.9746v2.1992a6.8581,6.8581,0,0,0-3.7246-1.1,4.4788,4.4788,0,0,0,0,8.9482Z"/>
      <path id="fullLogo-81" data-name="fullLogo" d="M455.1863,62.2654h2.3v6.9493c0,.5742-.0752,1.0488-.0752,1.249h.0244a5.2407,5.2407,0,0,1,4.6993-2.999c3.0742,0,4.2744,1.8242,4.2744,4.9492v7.8476h-2.3252v-7.373c0-1.7246-.3-3.2744-2.3741-3.2744a4.2367,4.2367,0,0,0-4.1992,4.499v6.1484h-2.3242Z"/>
      <path id="fullLogo-82" data-name="fullLogo" d="M477.9353,80.2615V62.2654h2.3994V80.2615Z"/>
      <path id="fullLogo-83" data-name="fullLogo" d="M487.2849,67.7645l.05,1.75a3.568,3.568,0,0,1-.1.9492h.05a5.3022,5.3022,0,0,1,4.7735-2.999c3.0742,0,4.2744,1.8242,4.2744,4.9492v7.8476h-2.3252v-7.373c0-1.7246-.3-3.2744-2.374-3.2744a4.2367,4.2367,0,0,0-4.1992,4.499v6.1484H485.11V67.7645Z"/>
      <path id="fullLogo-84" data-name="fullLogo" d="M503.36,74.9129c-2.2246-.7246-3.7744-1.6748-3.7744-3.9238,0-2.0752,1.875-3.5244,4.4737-3.5244a8.763,8.763,0,0,1,3.5244.75v2.1a7.49,7.49,0,0,0-3.2744-.875c-1.4248,0-2.5489.5-2.5489,1.625,0,.999.875,1.4746,2.5742,2.0244,2.6495.874,3.9493,1.85,3.9493,3.9482,0,2.2744-1.85,3.5244-4.5489,3.5244a9.8035,9.8035,0,0,1-4.0742-.8242v-2.125a10.0863,10.0863,0,0,0,3.999,1.0244c1.3,0,2.4747-.4492,2.4747-1.624C506.1346,75.9373,505.21,75.5125,503.36,74.9129Z"/>
      <path id="fullLogo-85" data-name="fullLogo" d="M512.2605,67.7645V64.0154h2.2744v3.7491h3.7745v1.8994h-3.7745v6.4736c0,1.7744.8,2.374,1.85,2.374a5.8816,5.8816,0,0,0,2.35-.55v2.0244a6.2543,6.2543,0,0,1-2.8.5752,3.4168,3.4168,0,0,1-3.6993-3.7236V69.6639h-2.0488V67.7645Z"/>
      <path id="fullLogo-86" data-name="fullLogo" d="M522.5847,62.7156a1.4126,1.4126,0,1,1,0,2.8242,1.4126,1.4126,0,1,1,0-2.8242Zm1.1749,5.0489v12.497h-2.3243V67.7645Z"/>
      <path id="fullLogo-87" data-name="fullLogo" d="M528.6853,67.7645V64.0154H530.96v3.7491h3.7745v1.8994H530.96v6.4736c0,1.7744.8,2.374,1.85,2.374a5.8816,5.8816,0,0,0,2.35-.55v2.0244a6.2543,6.2543,0,0,1-2.8.5752,3.4164,3.4164,0,0,1-3.6993-3.7236V69.6639h-2.0488V67.7645Z"/>
      <path id="fullLogo-88" data-name="fullLogo" d="M546.408,80.2615l-.05-1.75a5.2993,5.2993,0,0,1,.1-.9492h-.05a5.1845,5.1845,0,0,1-4.6484,2.999c-3.0743,0-4.2745-1.8242-4.2745-4.9482V67.7645h2.3243v7.373c0,1.7246.3,3.2744,2.375,3.2744a4.1852,4.1852,0,0,0,4.0742-4.499V67.7645h2.3242v12.497Z"/>
      <path id="fullLogo-89" data-name="fullLogo" d="M553.51,67.7645V64.0154h2.2744v3.7491h3.7744v1.8994H555.784v6.4736c0,1.7744.8,2.374,1.85,2.374a5.8816,5.8816,0,0,0,2.35-.55v2.0244a6.2543,6.2543,0,0,1-2.8.5752,3.4163,3.4163,0,0,1-3.6992-3.7236V69.6639h-2.0489V67.7645Z"/>
      <path id="fullLogo-90" data-name="fullLogo" d="M573.407,73.2879c0,.5-.05.9756-.05,1.2246h-9.2978v.0254c.0742,2.4492,1.7246,3.999,4.3486,3.999a9.0215,9.0215,0,0,0,4.5234-1.1748v2.125a9.8935,9.8935,0,0,1-4.6738,1.0742,6.5556,6.5556,0,0,1-.499-13.0966A5.4845,5.4845,0,0,1,573.407,73.2879Zm-5.6738-3.874a3.6707,3.6707,0,0,0-3.6494,3.4492h7.0234A3.2413,3.2413,0,0,0,567.7332,69.4139Z"/>
    </g>
  </g>
</svg>
